<?xml version="1.0" encoding="utf-8"?>
<!-- Generator: Adobe Illustrator 18.0.0, SVG Export Plug-In . SVG Version: 6.00 Build 0)  -->
<!DOCTYPE svg PUBLIC "-//W3C//DTD SVG 1.1//EN" "http://www.w3.org/Graphics/SVG/1.1/DTD/svg11.dtd">
<svg version="1.1" id="Layer_2" xmlns="http://www.w3.org/2000/svg" xmlns:xlink="http://www.w3.org/1999/xlink" x="0px" y="0px"
	 viewBox="0 0 128 128" enable-background="new 0 0 128 128" xml:space="preserve">
<g>
	<path fill="#313949" d="M64,3c33.6,0,61,27.4,61,61s-27.4,61-61,61S3,97.6,3,64S30.4,3,64,3 M64,0C28.7,0,0,28.7,0,64
		s28.7,64,64,64s64-28.7,64-64S99.3,0,64,0L64,0z"/>
</g>
<g>
	<g>
		<g>
			<path fill="#313949" d="M97.8,62.7c-0.7,0-1.4-0.6-1.5-1.3c-1-7.8-4.9-14.8-11-19.6c-0.6-0.5-0.8-1.5-0.2-2.1
				c0.5-0.6,1.5-0.8,2.1-0.2c6.7,5.4,11,13,12.1,21.6c0.1,0.8-0.5,1.6-1.3,1.7C98,62.7,97.9,62.7,97.8,62.7z"/>
		</g>
		<g>
			<g>
				<polygon fill="#313949" points="94.1,40 87,41.1 88.1,48.3 84.6,45.7 83.5,38.6 90.6,37.4 				"/>
			</g>
		</g>
	</g>
</g>
<g>
	<g>
		<g>
			<path fill="#313949" d="M31.4,59.2c-0.1,0-0.2,0-0.3,0c-0.8-0.2-1.3-1-1.2-1.8c1.8-8.4,6.7-15.7,13.9-20.5
				c0.7-0.5,1.6-0.3,2.1,0.4c0.5,0.7,0.3,1.6-0.4,2.1c-6.5,4.4-11,11-12.6,18.7C32.7,58.7,32.1,59.2,31.4,59.2z"/>
		</g>
		<g>
			<g>
				<polygon fill="#313949" points="27.3,51 31.5,56.8 37.4,52.6 36.7,56.9 30.9,61.1 26.6,55.3 				"/>
			</g>
		</g>
	</g>
</g>
<g>
	<g>
		<g>
			<path fill="#313949" d="M63.4,100.5c-4.5,0-9.1-0.9-13.3-2.8c-0.8-0.3-1.1-1.2-0.8-2c0.3-0.8,1.2-1.1,2-0.8
				c7.2,3.1,15.2,3.4,22.5,0.7c0.8-0.3,1.6,0.1,1.9,0.9c0.3,0.8-0.1,1.6-0.9,1.9C71.1,99.8,67.2,100.5,63.4,100.5z"/>
		</g>
		<g>
			<g>
				<polygon fill="#313949" points="70.8,104.1 73.5,97.4 66.8,94.7 70.7,93 77.4,95.7 74.7,102.4 				"/>
			</g>
		</g>
	</g>
</g>
<g>
	<path fill="#313949" d="M53.8,28.4c0-0.3,0.4-0.6,0.6-0.6H55c0.2,0,0.5,0.1,0.6,0.4l8.1,15.2h0.1l8.1-15.2c0.1-0.2,0.4-0.4,0.6-0.4
		h0.6c0.3,0,0.6,0.2,0.6,0.6l4,23.6c0.1,0.5-0.2,0.8-0.7,0.8h-4.1c-0.3,0-0.6-0.3-0.7-0.6l-1.6-10.8h-0.1l-5.9,11.4
		c-0.1,0.2-0.4,0.4-0.6,0.4h-0.6c-0.2,0-0.5-0.2-0.6-0.4l-5.9-11.4h-0.1l-1.5,10.8c0,0.3-0.3,0.6-0.7,0.6h-4.1
		c-0.4,0-0.7-0.3-0.7-0.8L53.8,28.4z"/>
</g>
<g>
	<path fill="#313949" d="M26.7,68.2c-0.2-0.5,0.1-0.9,0.6-0.9h4.7c0.3,0,0.5,0.2,0.6,0.4l5.8,12.8h0.2l5.8-12.8
		c0.1-0.2,0.3-0.4,0.6-0.4h4.7c0.5,0,0.8,0.5,0.6,0.9l-11,23.6c-0.1,0.2-0.3,0.4-0.6,0.4h-0.4c-0.3,0-0.5-0.2-0.6-0.4L26.7,68.2z"/>
</g>
<g>
	<path fill="#313949" d="M88.6,67c3.5,0,6.1,1.1,8.5,3.3c0.3,0.3,0.3,0.7,0,1L94.4,74c-0.2,0.2-0.6,0.2-0.9,0
		c-1.3-1.2-3-1.8-4.7-1.8c-4,0-6.9,3.3-6.9,7.2c0,3.9,2.9,7.1,6.9,7.1c1.6,0,3.4-0.6,4.7-1.7c0.2-0.2,0.7-0.2,0.9,0l2.7,2.9
		c0.2,0.2,0.2,0.7,0,0.9c-2.4,2.3-5.4,3.4-8.5,3.4c-7,0-12.7-5.6-12.7-12.6C76,72.6,81.6,67,88.6,67z"/>
</g>
</svg>
