<?xml version="1.0" standalone="no"?><!DOCTYPE svg PUBLIC "-//W3C//DTD SVG 1.1//EN" "http://www.w3.org/Graphics/SVG/1.1/DTD/svg11.dtd"><svg class="icon" height="512" viewBox="0 0 1024 1024" version="1.1" xmlns="http://www.w3.org/2000/svg"><path d="M512 825.8C339 825.8 198.2 685 198.2 512S339 198.2 512 198.2 825.8 339 825.8 512 685 825.8 512 825.8z m0-578c-145.7 0-264.2 118.5-264.2 264.2S366.3 776.2 512 776.2 776.2 657.7 776.2 512 657.7 247.8 512 247.8z" fill="#081406" /><path d="M912.8 690.5c-2.3 0-4.6-0.4-6.9-1.3-9.5-3.8-14.2-14.6-10.4-24.1 19.4-48.7 29.3-100.1 29.3-153 0-227.6-185.2-412.8-412.8-412.8-126.9 0-244.9 57.1-323.8 156.7-6.4 8-18.1 9.4-26.1 3s-9.4-18.1-3-26.1C245.1 124.2 373.7 62 512 62c248.1 0 450 201.9 450 450 0 57.6-10.7 113.7-31.9 166.8-2.9 7.3-9.9 11.7-17.3 11.7zM512 962C263.9 962 62 760.1 62 512c0-40.8 5.5-81.3 16.2-120.2 2.7-9.9 13-15.7 22.9-13 9.9 2.7 15.7 13 13 22.9-9.9 35.8-14.9 72.9-14.9 110.3 0 227.6 185.2 412.8 412.8 412.8 110.8 0 214.8-43.3 292.9-121.9 7.2-7.3 19-7.3 26.3-0.1 7.3 7.2 7.3 19 0.1 26.3C746.1 914.8 632.8 962 512 962z" fill="#081406" /><path d="M133 315.1m-20.9 0a20.9 20.9 0 1 0 41.8 0 20.9 20.9 0 1 0-41.8 0Z" fill="#081406" /><path d="M865.2 740.9m-20.9 0a20.9 20.9 0 1 0 41.8 0 20.9 20.9 0 1 0-41.8 0Z" fill="#081406" /><path d="M469.5 575.9c0 0.8-0.2 1.4-0.6 2-0.4 0.6-1.2 1.1-2.3 1.5-1.1 0.4-2.5 0.7-4.3 0.9-1.8 0.2-4.1 0.3-6.9 0.3-2.7 0-5-0.1-6.8-0.3-1.8-0.2-3.2-0.5-4.3-0.9-1.1-0.4-1.8-0.9-2.3-1.5-0.4-0.6-0.7-1.3-0.7-2V457.1h-0.2l-42.3 118.7c-0.3 1-0.8 1.8-1.5 2.4-0.7 0.6-1.6 1.1-2.8 1.5-1.2 0.4-2.6 0.6-4.5 0.7-1.8 0.1-4 0.2-6.5 0.2-2.6 0-4.7-0.1-6.5-0.3-1.8-0.2-3.3-0.5-4.5-0.9-1.2-0.4-2.1-0.9-2.8-1.5-0.7-0.6-1.1-1.3-1.4-2.1l-40.8-118.7h-0.2v118.8c0 0.8-0.2 1.4-0.6 2-0.4 0.6-1.2 1.1-2.3 1.5-1.1 0.4-2.6 0.7-4.3 0.9-1.8 0.2-4 0.3-6.8 0.3-2.7 0-5-0.1-6.8-0.3-1.8-0.2-3.3-0.5-4.3-0.9-1.1-0.4-1.8-0.9-2.3-1.5-0.4-0.6-0.6-1.3-0.6-2V445.8c0-3.8 1-6.8 3-8.8 2-2 4.7-3 8.1-3H330c3.5 0 6.4 0.3 8.9 0.8 2.5 0.6 4.6 1.5 6.4 2.8 1.8 1.3 3.3 3 4.5 5.2 1.2 2.1 2.3 4.8 3.2 8l31.6 87h0.4l32.7-86.8c1-3.2 2.1-5.8 3.2-8 1.2-2.2 2.5-3.9 4.1-5.3 1.5-1.4 3.4-2.3 5.5-2.9 2.1-0.6 4.5-0.8 7.3-0.8h20c2 0 3.8 0.3 5.2 0.8 1.5 0.5 2.7 1.3 3.6 2.3 0.9 1 1.7 2.3 2.1 3.7 0.5 1.5 0.7 3.1 0.7 5v130.1zM574 574.8c-0.4 1.3-0.9 2.3-1.5 3.1-0.6 0.8-1.6 1.4-2.9 1.8-1.4 0.4-3.2 0.7-5.5 0.8-2.3 0.1-5.4 0.2-9.1 0.2-3 0-5.6 0-7.7-0.1-2.1 0-4-0.1-5.5-0.3-1.5-0.2-2.7-0.4-3.7-0.7-0.9-0.3-1.7-0.7-2.4-1.1-0.6-0.5-1.1-1-1.5-1.6-0.3-0.6-0.7-1.4-1-2.4L489.8 445c-0.9-2.7-1.4-4.9-1.6-6.4s0.2-2.8 1.1-3.6c0.9-0.8 2.5-1.3 4.8-1.5 2.3-0.2 5.4-0.3 9.5-0.3 3.5 0 6.2 0.1 8.1 0.2 2 0.2 3.5 0.4 4.5 0.8 1.1 0.4 1.8 0.9 2.2 1.7 0.4 0.7 0.8 1.7 1.2 2.8l35.5 112.6h0.1l34.9-112c0.3-1.3 0.7-2.3 1.1-3.1 0.5-0.8 1.2-1.4 2.3-1.9 1.1-0.5 2.6-0.7 4.7-0.9 2-0.1 4.8-0.2 8.3-0.2 3.5 0 6.2 0.1 8.1 0.3s3.2 0.8 3.9 1.6c0.7 0.9 0.9 2.1 0.7 3.7-0.3 1.6-0.8 3.7-1.7 6.3L574 574.8zM735.2 557.9c0 1.9-0.1 3.5-0.2 4.8-0.1 1.3-0.3 2.4-0.5 3.4-0.2 0.9-0.5 1.7-0.9 2.4s-1 1.5-1.8 2.3c-0.8 0.9-2.4 2-4.8 3.3-2.4 1.4-5.3 2.6-8.7 3.9-3.4 1.2-7.3 2.3-11.7 3.1-4.4 0.8-9.2 1.2-14.3 1.2-10 0-19-1.5-27.1-4.6-8-3.1-14.9-7.7-20.5-13.8-5.6-6.1-10-13.8-13-23s-4.5-19.9-4.5-32c0-12.4 1.7-23.4 5-33 3.3-9.6 7.9-17.7 13.9-24.3 5.9-6.5 13.1-11.5 21.4-14.9 8.3-3.4 17.5-5.1 27.5-5.1 4.1 0 8 0.3 11.7 1 3.8 0.7 7.2 1.6 10.4 2.7s6.1 2.3 8.6 3.8c2.6 1.4 4.3 2.7 5.4 3.7 1 1 1.7 1.9 2.1 2.5 0.4 0.7 0.7 1.5 0.9 2.6 0.2 1.1 0.4 2.3 0.5 3.7 0.1 1.4 0.2 3.2 0.2 5.3 0 2.3-0.1 4.2-0.2 5.8-0.2 1.6-0.4 2.9-0.8 3.8-0.4 1-0.8 1.7-1.4 2.1-0.5 0.4-1.1 0.7-1.8 0.7-1.1 0-2.6-0.7-4.3-2-1.7-1.3-4-2.8-6.7-4.4-2.7-1.6-6-3.1-9.8-4.4-3.8-1.3-8.3-2-13.6-2-5.8 0-11 1.2-15.5 3.5-4.5 2.4-8.4 5.8-11.6 10.2-3.2 4.4-5.6 9.7-7.3 16-1.7 6.2-2.5 13.3-2.5 21.1 0 8.6 0.9 16 2.7 22.3 1.8 6.3 4.3 11.4 7.6 15.5s7.2 7.1 11.8 9.1c4.6 2 9.8 3 15.6 3 5.3 0 9.8-0.6 13.6-1.9 3.8-1.2 7.1-2.6 9.9-4.1 2.7-1.5 5-2.9 6.8-4.1s3.1-1.8 4.1-1.8c0.7 0 1.4 0.2 1.8 0.5 0.5 0.3 0.8 0.9 1.1 1.8 0.3 0.9 0.5 2.2 0.7 3.8 0.1 1.6 0.2 3.7 0.2 6.5z" fill="#081406" /></svg>